<svg xmlns="http://www.w3.org/2000/svg" width="3600" height="1024" fill="none">
  <rect width="512" height="256" x="256" y="670.72" fill="#1AD1A5" rx="128"/>
  <circle cx="512" cy="353.28" r="256" fill="#fff"/>
  <circle cx="512" cy="353.28" r="261" stroke="#000" stroke-opacity=".2" stroke-width="10"/>
  <circle cx="512" cy="353.28" r="114.688" fill="#FF9903"/>
  <path fill="#1AD1A5" d="M2788.44 729.2c-37.2 0-69.2-6.8-96-20.4-26.8-13.6-47.4-33-61.8-58.2-14-25.6-21-56-21-91.2h111c0 14 2.8 26 8.4 36 5.6 10 13.4 17.6 23.4 22.8 10.4 5.2 22.8 7.8 37.2 7.8 14.4 0 26.8-2.6 37.2-7.8 10.4-5.2 18.2-12.8 23.4-22.8 5.6-10 8.4-22 8.4-36h111c0 35.2-7.2 65.6-21.6 91.2-14.4 25.2-35.2 44.6-62.4 58.2-26.8 13.6-59.2 20.4-97.2 20.4Zm-178.8-169.8V302h111v257.4h-111Zm249 0V302h111v257.4h-111ZM3035.76 722V302h111v420h-111Z"/>
  <path fill="#000" d="m1280.8 722-5.4-55.8V302h108v420h-102.6Zm-85.2 7.2c-28.4 0-52.8-6.2-73.2-18.6-20-12.4-35.4-30.4-46.2-54-10.8-23.6-16.2-51.8-16.2-84.6 0-33.2 5.4-61.4 16.2-84.6 10.8-23.6 26.2-41.6 46.2-54 20.4-12.4 44.8-18.6 73.2-18.6 24.8 0 45.2 6.2 61.2 18.6 16.4 12.4 28.4 30.4 36 54 8 23.2 12 51.4 12 84.6 0 32.8-4 61-12 84.6-7.6 23.6-19.6 41.6-36 54-16 12.4-36.4 18.6-61.2 18.6Zm28.8-99.6c10 0 18.8-2.4 26.4-7.2 8-5.2 14.2-12 18.6-20.4 4.4-8.8 6.6-18.8 6.6-30s-2.2-21-6.6-29.4c-4.4-8.8-10.6-15.6-18.6-20.4-7.6-4.8-16.6-7.2-27-7.2-9.6 0-18.2 2.4-25.8 7.2-7.6 4.8-13.6 11.6-18 20.4-4.4 8.4-6.8 18.2-7.2 29.4.4 11.2 2.8 21.2 7.2 30 4.4 8.4 10.4 15.2 18 20.4 8 4.8 16.8 7.2 26.4 7.2Zm387.91 92.4-3-69v-78c0-14-.8-26.6-2.4-37.8-1.6-11.2-5.6-20-12-26.4-6.4-6.4-16.8-9.6-31.2-9.6-10 0-18.2 2.4-24.6 7.2-6.4 4.8-11.8 10.4-16.2 16.8l-94.2-30c8.4-16.4 18.8-30.6 31.2-42.6 12.8-12 27.6-21.2 44.4-27.6 17.2-6.8 36.2-10.2 57-10.2 32 0 59.4 5.8 82.2 17.4 22.8 11.6 40.2 27.8 52.2 48.6s18 45 18 72.6V722h-101.4Zm-79.8 7.2c-34.8 0-62-7.8-81.6-23.4-19.2-16-28.8-38.8-28.8-68.4 0-31.2 9.6-54.2 28.8-69 19.6-15.2 46.8-22.8 81.6-22.8h88.2v61.8h-45.6c-14 0-24.8 2.4-32.4 7.2-7.6 4.8-11.4 11.6-11.4 20.4 0 6 2.6 10.6 7.8 13.8 5.2 3.2 12.4 4.8 21.6 4.8 10 0 18.6-1.8 25.8-5.4 7.2-4 12.8-9.4 16.8-16.2 4-7.2 6-15.4 6-24.6h28.2c0 38.8-9.2 68.8-27.6 90-18.4 21.2-44.2 31.8-77.4 31.8Zm238.14-7.2V422h108v300h-108Zm54-328.8c-16 0-30-6-42-18s-18-26-18-42c0-16.4 6-30.4 18-42 12-12 26-18 42-18 16.4 0 30.4 6 42 18 12 11.6 18 25.6 18 42 0 16-6 30-18 42-11.6 12-25.6 18-42 18Zm227.42 336c-20 0-38.6-2.8-55.8-8.4-17.2-5.6-32-13.4-44.4-23.4-12-10.4-20.4-22.8-25.2-37.2l85.8-33.6c4.4 10.8 10.6 17.8 18.6 21 8 2.8 15 4.2 21 4.2 6.4 0 11.6-1.4 15.6-4.2 4-2.8 6-6.8 6-12 0-5.6-2.8-10.2-8.4-13.8-5.6-4-14.2-7.4-25.8-10.2l-24.6-6c-26.8-6.8-47-18.6-60.6-35.4-13.6-16.8-20.4-36.4-20.4-58.8 0-30.8 11.2-54.6 33.6-71.4 22.8-16.8 53.6-25.2 92.4-25.2 23.6 0 43.4 3 59.4 9 16.4 5.6 29.8 13.6 40.2 24 10.4 10.4 18.4 22.4 24 36l-83.4 31.8c-2.8-8-7.6-13.8-14.4-17.4-6.4-3.6-14.4-5.4-24-5.4-6.8 0-12.2 1.6-16.2 4.8-3.6 3.2-5.4 7-5.4 11.4 0 4.8 2.8 9 8.4 12.6 6 3.2 15 6.4 27 9.6l24.6 6c18.4 4.4 34.4 11.2 48 20.4 13.6 8.8 24.2 19.8 31.8 33 7.6 13.2 11.4 28.4 11.4 45.6 0 19.6-5.8 36.4-17.4 50.4-11.6 13.6-27.8 24.2-48.6 31.8-20.8 7.2-45.2 10.8-73.2 10.8Zm271.93 120c-14 0-28.8-2.8-44.4-8.4-15.6-5.2-28-10.8-37.2-16.8l40.2-87c4.4 3.6 9 6.4 13.8 8.4 5.2 2.4 10 3.6 14.4 3.6 6.4 0 12.4-1.6 18-4.8 6-3.2 10.6-8.6 13.8-16.2l36-84 81-222h120l-129 310.8c-9.2 22.4-18.8 42.4-28.8 60s-22.6 31.4-37.8 41.4c-14.8 10-34.8 15-60 15Zm26.4-127.2-144-300h120l89.4 222 36.6 78h-102Z"/>
</svg>
